<svg width="25" height="25" viewBox="0 0 25 25" fill="none" xmlns="http://www.w3.org/2000/svg">
<path d="M17.1338 16.0469L12.0215 21.1592C11.2646 21.916 10.0366 21.916 9.27734 21.1592L2.80029 14.6797C2.04346 13.9229 2.04346 12.6948 2.80029 11.9355L11.7358 3L18.4131 9.67725" fill="#94BF9D"/>
<path d="M10.6494 22.7075C10.0098 22.7075 9.37256 22.4634 8.88428 21.9775L2.40723 15.5005C1.93604 15.0293 1.67725 14.4019 1.67725 13.7354C1.67725 13.0688 1.93604 12.4414 2.40723 11.9702L11.7358 2.6416L18.8037 9.71191C19.021 9.9292 19.021 10.2808 18.8037 10.498C18.5864 10.7153 18.2349 10.7153 18.0176 10.498L11.7358 4.21387L3.19336 12.7563C2.93213 13.0176 2.78809 13.3643 2.78809 13.7354C2.78809 14.104 2.93213 14.4531 3.19336 14.7144L9.67285 21.1938C10.2124 21.7334 11.0913 21.7334 11.6309 21.1938L16.7432 16.0815C16.9604 15.8643 17.312 15.8643 17.5293 16.0815C17.7466 16.2988 17.7466 16.6504 17.5293 16.8677L12.4146 21.9775C11.9287 22.4658 11.2891 22.7075 10.6494 22.7075Z" fill="black"/>
<path d="M7.66846 7.49512L2.80029 12.3633C2.04346 13.1201 2.04346 14.3481 2.80029 15.1074L8.45703 20.7642C4.74609 15.9351 5.29541 11.084 7.66846 7.49512Z" fill="#94BF9D"/>
<path d="M20.8301 13.8354C20.73 14.3652 20.2173 14.7144 19.6875 14.6118C19.1577 14.5117 18.8086 13.999 18.9111 13.4692C19.0112 12.9395 20.166 11.9434 20.166 11.9434C20.166 11.9434 20.2856 12.1558 20.4224 12.4438C20.4687 12.5439 20.52 12.6514 20.5664 12.7637C20.6152 12.876 20.6592 12.9907 20.7007 13.1055C20.8008 13.3862 20.8643 13.6572 20.8301 13.8354ZM22.3047 15.2368C22.6489 15.0024 23.1152 15.0928 23.3496 15.437C23.584 15.7812 23.4936 16.2476 23.1494 16.4819C22.8052 16.7163 21.6357 16.6284 21.6357 16.6284C21.6357 16.6284 21.687 16.4478 21.7676 16.2158C21.7969 16.1353 21.8286 16.0498 21.8628 15.9644C21.897 15.8765 21.936 15.7886 21.9751 15.7056C22.0776 15.498 22.1899 15.3149 22.3047 15.2368ZM21.1572 18.916C21.272 19.3433 21.0181 19.7803 20.5908 19.8926C20.1636 20.0073 19.7266 19.7534 19.6143 19.3262C19.4995 18.8989 19.9976 17.7588 19.9976 17.7588C19.9976 17.7588 20.1611 17.8711 20.3638 18.0347C20.4346 18.0908 20.5078 18.1519 20.5835 18.2178C20.6592 18.2837 20.7324 18.3521 20.8032 18.4204C20.9766 18.5962 21.1206 18.7744 21.1572 18.916Z" fill="#94BF9D"/>
<path d="M11.8311 4.09424L11.5161 3.7793C11.2646 3.52783 11.2646 3.11768 11.5161 2.86621L12.1582 2.22412C12.4951 1.88721 13.0493 1.88721 13.3862 2.22412C13.7231 2.56104 13.7231 3.11523 13.3862 3.45215L12.7441 4.09424C12.4927 4.3457 12.0825 4.3457 11.8311 4.09424ZM16.5552 8.81836L16.2402 8.50342C15.9888 8.25195 15.9888 7.8418 16.2402 7.59033L16.8823 6.94824C17.2192 6.61133 17.7734 6.61133 18.1104 6.94824C18.4473 7.28516 18.4473 7.83936 18.1104 8.17627L17.4683 8.81836C17.2168 9.07227 16.8066 9.07227 16.5552 8.81836ZM14.1919 6.45752L13.877 6.14258C13.6255 5.89111 13.6255 5.48096 13.877 5.22949L14.519 4.5874C14.856 4.25049 15.4102 4.25049 15.7471 4.5874C16.084 4.92432 16.084 5.47852 15.7471 5.81543L15.105 6.45752C14.8535 6.70898 14.4458 6.70898 14.1919 6.45752Z" fill="#94BF9D"/>
<path d="M10.8643 17.4829C10.7642 17.4829 10.6641 17.4731 10.5664 17.4512C9.78028 17.2852 9.2505 16.4819 9.21632 15.5078C9.16505 15.5103 9.11378 15.5127 9.06251 15.5127C8.04933 15.5127 7.2461 14.9902 7.06056 14.2114C6.85304 13.3423 7.46339 12.4536 8.48878 12.0459C8.17628 11.084 8.41798 10.1147 9.13331 9.69727C9.36036 9.56543 9.61427 9.49707 9.88771 9.49707C10.5298 9.49707 11.1987 9.88037 11.6699 10.498C12.0752 10.2441 12.522 10.105 12.9468 10.105C13.396 10.105 13.7842 10.2563 14.0747 10.5444C14.6509 11.1206 14.6582 12.0728 14.1455 12.9126C14.9805 13.4741 15.3858 14.3799 15.083 15.1489C14.8316 15.7886 14.1528 16.1841 13.3106 16.1841C13.0908 16.1841 12.8662 16.1572 12.6416 16.1035C12.2852 16.936 11.6016 17.4829 10.8643 17.4829ZM10.2979 14.3335L10.1733 15.0439C10.0464 15.7642 10.3125 16.4526 10.7568 16.5454C10.791 16.5527 10.8276 16.5576 10.8643 16.5576C11.2915 16.5576 11.7358 16.0645 11.8994 15.4102L12.0288 14.8853L12.5269 15.0952C12.5391 15.1001 12.5488 15.105 12.561 15.1099L12.5733 15.1147C12.815 15.21 13.0689 15.2588 13.3081 15.2588C13.7622 15.2588 14.1113 15.0879 14.2188 14.812C14.3872 14.3848 13.9526 13.7793 13.2715 13.4912L12.6709 13.2373L13.1079 12.7539C13.5962 12.2168 13.7354 11.5186 13.4155 11.2012C13.2764 11.062 13.0811 11.0327 12.9443 11.0327C12.5952 11.0327 12.19 11.2134 11.8579 11.5137L11.4111 11.9214L11.1353 11.3843C11.1157 11.3477 11.0986 11.3135 11.0791 11.2817C10.7349 10.6909 10.2295 10.4248 9.88526 10.4248C9.77784 10.4248 9.68019 10.4492 9.59718 10.498C9.20167 10.73 9.16749 11.4722 9.52394 12.1191L9.82667 12.6709L9.17237 12.8027C9.16261 12.8052 9.15284 12.8076 9.14063 12.8101C8.40333 12.9858 7.85157 13.5425 7.96144 13.999C8.04444 14.3457 8.4961 14.5898 9.06251 14.5898C9.22364 14.5898 9.38722 14.5703 9.55079 14.5313L9.563 14.5288C9.57521 14.5264 9.58741 14.5215 9.59962 14.519L10.2979 14.3335Z" fill="white"/>
<path d="M10.1074 13.3472C10.1074 13.6463 10.2263 13.9332 10.4378 14.1447C10.6493 14.3563 10.9362 14.4751 11.2354 14.4751C11.5345 14.4751 11.8214 14.3563 12.0329 14.1447C12.2444 13.9332 12.3633 13.6463 12.3633 13.3472C12.3633 13.048 12.2444 12.7611 12.0329 12.5496C11.8214 12.3381 11.5345 12.2192 11.2354 12.2192C10.9362 12.2192 10.6493 12.3381 10.4378 12.5496C10.2263 12.7611 10.1074 13.048 10.1074 13.3472Z" fill="white"/>
<path d="M10.6494 22.7075C10.0098 22.7075 9.37256 22.4634 8.88428 21.9775L2.40723 15.5005C1.93604 15.0293 1.67725 14.4019 1.67725 13.7354C1.67725 13.0688 1.93604 12.4414 2.40723 11.9702L11.7358 2.6416L18.8037 9.71191C19.021 9.9292 19.021 10.2808 18.8037 10.498C18.5864 10.7153 18.2349 10.7153 18.0176 10.498L11.7358 4.21387L3.19336 12.7563C2.93213 13.0176 2.78809 13.3643 2.78809 13.7354C2.78809 14.104 2.93213 14.4531 3.19336 14.7144L9.67285 21.1938C10.2124 21.7334 11.0913 21.7334 11.6309 21.1938L16.7432 16.0815C16.9604 15.8643 17.312 15.8643 17.5293 16.0815C17.7466 16.2988 17.7466 16.6504 17.5293 16.8677L12.4146 21.9775C11.9287 22.4658 11.2891 22.7075 10.6494 22.7075Z" fill="#94BF9D"/>
</svg>
