<svg width="30" height="31" viewBox="0 0 30 31" fill="none" xmlns="http://www.w3.org/2000/svg">
<path d="M27.1924 12.865C26.9515 12.865 26.7161 12.7937 26.5156 12.6601C26.3152 12.5266 26.1587 12.3368 26.0659 12.1145L25.0807 9.73669C24.9884 9.51385 24.9642 9.26862 25.0114 9.03205C25.0585 8.79548 25.1748 8.57823 25.3456 8.40782C25.8015 7.94963 26.0575 7.32952 26.0575 6.68311C26.0575 6.0367 25.8015 5.41659 25.3456 4.9584C24.4235 4.03636 22.8189 4.03636 21.8968 4.9584C21.7264 5.12905 21.5091 5.2453 21.2726 5.29243C21.036 5.33957 20.7908 5.31548 20.568 5.22321L18.1915 4.23737C17.9684 4.14526 17.7777 3.98907 17.6434 3.78857C17.509 3.58806 17.4372 3.35223 17.4369 3.11089C17.4261 2.47123 17.1645 1.8614 16.7083 1.41284C16.2522 0.96428 15.6381 0.71291 14.9983 0.71291C14.3586 0.71291 13.7444 0.96428 13.2883 1.41284C12.8321 1.8614 12.5705 2.47123 12.5598 3.11089C12.5595 3.35223 12.4876 3.58806 12.3533 3.78857C12.219 3.98907 12.0282 4.14526 11.8051 4.23737L9.4328 5.22321C9.20982 5.31475 8.96479 5.33845 8.7284 5.29135C8.49202 5.24424 8.27479 5.12842 8.10394 4.9584C7.64651 4.50098 7.02612 4.244 6.37922 4.244C5.73233 4.244 5.11194 4.50098 4.65451 4.9584C4.19709 5.41582 3.94011 6.03622 3.94011 6.68311C3.94011 7.33001 4.19709 7.9504 4.65451 8.40782C4.82508 8.57833 4.94127 8.79558 4.98841 9.0321C5.03554 9.26863 5.0115 9.51382 4.91933 9.73669L3.93554 12.1145C3.8432 12.3374 3.68696 12.528 3.48651 12.6623C3.28605 12.7966 3.05034 12.8686 2.80906 12.8692C2.16922 12.8799 1.55922 13.1416 1.11053 13.5979C0.661842 14.0541 0.4104 14.6685 0.4104 15.3084C0.4104 15.9483 0.661842 16.5626 1.11053 17.0189C1.55922 17.4752 2.16922 17.7369 2.80906 17.7476C3.05042 17.7478 3.28629 17.8197 3.48682 17.954C3.68734 18.0883 3.8435 18.2791 3.93554 18.5023L4.9207 20.8773C5.01288 21.1002 5.03692 21.3454 4.98978 21.5819C4.94265 21.8184 4.82645 22.0357 4.65589 22.2062C4.19925 22.664 3.94281 23.2843 3.94281 23.9309C3.94281 24.5775 4.19925 25.1978 4.65589 25.6556C5.57793 26.5777 7.18189 26.5777 8.10394 25.6556C8.27444 25.4851 8.49169 25.3689 8.72822 25.3217C8.96474 25.2746 9.20993 25.2986 9.4328 25.3908L11.8093 26.3691C12.0323 26.461 12.2231 26.6171 12.3574 26.8175C12.4918 27.0179 12.5636 27.2536 12.5639 27.4949C12.5585 27.8186 12.6175 28.1401 12.7376 28.4407C12.8578 28.7413 13.0365 29.015 13.2635 29.2458C13.4905 29.4767 13.7611 29.66 14.0597 29.7851C14.3582 29.9102 14.6787 29.9747 15.0024 29.9747C15.3262 29.9747 15.6466 29.9102 15.9452 29.7851C16.2438 29.66 16.5144 29.4767 16.7414 29.2458C16.9684 29.015 17.1471 28.7413 17.2672 28.4407C17.3873 28.1401 17.4464 27.8186 17.441 27.4949C17.4412 27.2536 17.513 27.0178 17.6473 26.8174C17.7817 26.617 17.9725 26.4609 18.1956 26.3691L20.5721 25.3833C20.7949 25.2911 21.0401 25.267 21.2767 25.3142C21.5132 25.3613 21.7304 25.4775 21.9009 25.6481C22.3584 26.1055 22.9788 26.3625 23.6257 26.3625C24.2725 26.3625 24.8929 26.1055 25.3504 25.6481C25.8078 25.1907 26.0648 24.5703 26.0648 23.9234C26.0648 23.2765 25.8078 22.6561 25.3504 22.1987C25.1796 22.0282 25.0633 21.811 25.0162 21.5744C24.9691 21.3379 24.9932 21.0926 25.0855 20.8698L26.0707 18.4947C26.1627 18.2715 26.3188 18.0807 26.5194 17.9463C26.7199 17.812 26.9558 17.7402 27.1972 17.7401C27.8372 17.7293 28.4474 17.4676 28.8962 17.0111C29.345 16.5547 29.5965 15.9403 29.5965 15.3002C29.5965 14.66 29.345 14.0456 28.8962 13.5892C28.4474 13.1328 27.8372 12.871 27.1972 12.8602L27.1924 12.865Z" fill="#395462"/>
<path opacity="0.5" d="M29.632 15C29.6316 15.647 29.3745 16.2675 28.9171 16.7251C28.4598 17.1828 27.8395 17.4402 27.1924 17.4409C26.9509 17.4409 26.7149 17.5127 26.5142 17.647C26.3135 17.7814 26.1573 17.9723 26.0653 18.1956L25.0808 20.57C24.9883 20.7928 24.9641 21.0381 25.0113 21.2747C25.0584 21.5112 25.1748 21.7285 25.3456 21.8989C25.5721 22.1253 25.7518 22.3942 25.8743 22.6902C25.9969 22.9861 26.06 23.3033 26.06 23.6236C26.06 23.9439 25.9969 24.261 25.8743 24.557C25.7518 24.8529 25.5721 25.1218 25.3456 25.3483C25.1191 25.5748 24.8502 25.7544 24.5543 25.877C24.2584 25.9996 23.9412 26.0627 23.6209 26.0627C23.3006 26.0627 22.9834 25.9996 22.6875 25.877C22.3916 25.7544 22.1227 25.5748 21.8962 25.3483C21.7256 25.1778 21.5084 25.0616 21.2719 25.0145C21.0354 24.9674 20.7902 24.9914 20.5673 25.0835L18.1915 26.0679C17.9684 26.1597 17.7775 26.3157 17.6431 26.5161C17.5088 26.7166 17.437 26.9524 17.4369 27.1937C17.4423 27.5174 17.3833 27.8389 17.2632 28.1395C17.143 28.4402 16.9643 28.7138 16.7373 28.9447C16.5103 29.1755 16.2397 29.3588 15.9411 29.4839C15.6426 29.6091 15.3221 29.6735 14.9984 29.6735C14.6746 29.6735 14.3542 29.6091 14.0556 29.4839C13.757 29.3588 13.4864 29.1755 13.2594 28.9447C13.0324 28.7138 12.8537 28.4402 12.7336 28.1395C12.6135 27.8389 12.5544 27.5174 12.5598 27.1937C12.5595 26.9525 12.4876 26.7168 12.3532 26.5164C12.2189 26.316 12.0282 26.1599 11.8052 26.0679L9.42735 25.0821C9.20448 24.9899 8.95929 24.9659 8.72276 25.013C8.48624 25.0601 8.26899 25.1763 8.09848 25.3469C7.17713 26.2689 5.57248 26.2689 4.65043 25.3469C4.19396 24.889 3.93764 24.2688 3.93764 23.6222C3.93764 22.9756 4.19396 22.3554 4.65043 21.8975C4.82108 21.727 4.93733 21.5098 4.98447 21.2732C5.0316 21.0367 5.00751 20.7915 4.91525 20.5686L3.93558 18.1935C3.84354 17.9704 3.68738 17.7796 3.48685 17.6453C3.28633 17.5109 3.05046 17.4391 2.8091 17.4389C2.35501 17.4395 1.90976 17.3134 1.52352 17.0746C1.13728 16.8358 0.825395 16.4939 0.623005 16.0874C0.420615 15.6809 0.335762 15.226 0.378007 14.7739C0.420251 14.3218 0.587915 13.8904 0.862106 13.5284C1.4419 14.615 2.0942 15.6613 2.81458 16.6602C4.1805 18.5551 5.84483 20.3155 7.96539 21.2951C8.92585 21.7376 9.95492 22.01 10.9915 22.1973C14.9603 22.9115 19.2131 22.34 22.6707 20.2654C25.4067 18.6244 27.5848 16.003 28.5871 12.9933C28.9106 13.2184 29.1746 13.5186 29.3566 13.8681C29.5385 14.2176 29.6331 14.606 29.632 15Z" fill="#283D48"/>
<path d="M15 30.0449C14.244 30.044 13.5192 29.7431 12.9849 29.2083C12.4506 28.6734 12.1504 27.9484 12.1502 27.1924C12.1508 27.0326 12.1037 26.8763 12.015 26.7435C11.9263 26.6106 11.7999 26.5073 11.6521 26.4466L9.27361 25.4608C9.12594 25.4003 8.96369 25.385 8.80729 25.4166C8.6509 25.4482 8.50737 25.5254 8.39478 25.6385C7.85764 26.1608 7.13647 26.4506 6.38729 26.4452C5.6381 26.4399 4.92114 26.1398 4.39151 25.6099C3.86188 25.08 3.56216 24.3629 3.5572 23.6137C3.55223 22.8645 3.84241 22.1435 4.36497 21.6066C4.47833 21.4938 4.55557 21.3498 4.58684 21.1929C4.61812 21.036 4.60202 20.8734 4.5406 20.7257L3.55338 18.3513C3.49244 18.2036 3.38893 18.0772 3.25603 17.9884C3.12312 17.8996 2.96681 17.8523 2.80697 17.8526C2.05853 17.841 1.34468 17.5355 0.819519 17.0021C0.294354 16.4688 0 15.7502 0 15.0017C0 14.2532 0.294354 13.5347 0.819519 13.0013C1.34468 12.4679 2.05853 12.1625 2.80697 12.1509C2.96689 12.1511 3.12327 12.1038 3.25627 12.015C3.38928 11.9262 3.49293 11.7999 3.55407 11.6521L4.53854 9.27498C4.59981 9.12739 4.61583 8.96491 4.58456 8.80818C4.55329 8.65146 4.47614 8.50757 4.36291 8.39479C3.82825 7.86013 3.52788 7.13498 3.52788 6.37885C3.52788 5.62273 3.82825 4.89758 4.36291 4.36292C4.89757 3.82826 5.62273 3.52789 6.37885 3.52789C7.13497 3.52789 7.86012 3.82826 8.39478 4.36292C8.50829 4.4757 8.65259 4.55241 8.80957 4.58341C8.96654 4.61442 9.12918 4.59833 9.27704 4.53717L11.6514 3.5527C11.7992 3.49176 11.9255 3.38825 12.0143 3.25535C12.1031 3.12244 12.1504 2.96613 12.1502 2.80629C12.1618 2.05803 12.4672 1.34436 13.0004 0.81932C13.5337 0.294283 14.252 0 15.0003 0C15.7487 0 16.467 0.294283 17.0003 0.81932C17.5335 1.34436 17.8389 2.05803 17.8505 2.80629C17.8503 2.96613 17.8976 3.12244 17.9864 3.25535C18.0752 3.38825 18.2015 3.49176 18.3493 3.5527L20.7264 4.53854C20.8738 4.59975 21.0361 4.6158 21.1927 4.58466C21.3493 4.55351 21.4931 4.47658 21.6059 4.3636C21.8706 4.09887 22.1848 3.88886 22.5307 3.74557C22.8765 3.60227 23.2472 3.52851 23.6216 3.52847C23.996 3.52844 24.3667 3.60215 24.7125 3.74538C25.0584 3.88861 25.3727 4.09857 25.6374 4.36326C25.9022 4.62795 26.1122 4.9422 26.2555 5.28805C26.3988 5.6339 26.4725 6.00459 26.4726 6.37895C26.4726 6.75332 26.3989 7.12402 26.2557 7.4699C26.1124 7.81577 25.9025 8.13005 25.6378 8.39479C25.5244 8.50747 25.4471 8.65137 25.4159 8.80813C25.3846 8.96489 25.4007 9.12742 25.4622 9.27498L26.4473 11.6535C26.5084 11.8006 26.6119 11.9263 26.7445 12.0146C26.8771 12.1029 27.033 12.1499 27.1924 12.1495C27.941 12.1611 28.655 12.4667 29.1803 13.0002C29.7056 13.5337 30 14.2523 30 15.001C30 15.7497 29.7056 16.4684 29.1803 17.0019C28.655 17.5354 27.941 17.841 27.1924 17.8526C27.0326 17.8522 26.8763 17.8993 26.7434 17.988C26.6104 18.0767 26.5069 18.2029 26.4459 18.3506L25.4608 20.7257C25.3993 20.8733 25.3832 21.0358 25.4145 21.1926C25.4458 21.3493 25.523 21.4932 25.6364 21.6059C26.0352 22.0041 26.307 22.5116 26.4174 23.0643C26.5277 23.6169 26.4717 24.1899 26.2564 24.7107C26.0411 25.2316 25.6761 25.6768 25.2077 25.9902C24.7393 26.3036 24.1885 26.471 23.6249 26.4713C23.2508 26.4725 22.8801 26.3994 22.5343 26.2563C22.1886 26.1132 21.8747 25.903 21.6107 25.6378C21.498 25.5245 21.3541 25.4473 21.1973 25.416C21.0406 25.3847 20.8781 25.4008 20.7305 25.4622L18.3493 26.448C18.2017 26.5087 18.0755 26.6118 17.9867 26.7443C17.8979 26.8769 17.8505 27.0328 17.8505 27.1924C17.8501 27.9484 17.5498 28.6735 17.0153 29.2083C16.4809 29.7431 15.7561 30.044 15 30.0449ZM8.96283 24.5779C9.17683 24.5779 9.38873 24.6201 9.58644 24.702L11.9649 25.6879C12.2639 25.8107 12.5194 26.0199 12.6987 26.2888C12.878 26.5577 12.9729 26.874 12.9714 27.1972C12.9664 27.4665 13.0152 27.7341 13.1148 27.9843C13.2145 28.2346 13.363 28.4625 13.5517 28.6547C13.7404 28.8469 13.9655 28.9996 14.2139 29.1038C14.4623 29.208 14.7289 29.2617 14.9983 29.2617C15.2676 29.2617 15.5343 29.208 15.7827 29.1038C16.0311 28.9996 16.2562 28.8469 16.4449 28.6547C16.6336 28.4625 16.7821 28.2346 16.8818 27.9843C16.9814 27.7341 17.0302 27.4665 17.0252 27.1972C17.0239 26.874 17.119 26.5579 17.2982 26.289C17.4775 26.0202 17.7328 25.8109 18.0316 25.6879L20.4081 24.702C20.706 24.5779 21.0342 24.5453 21.3507 24.6084C21.6673 24.6714 21.9579 24.8272 22.1856 25.056C22.3734 25.2445 22.5967 25.3938 22.8426 25.4955C23.0884 25.5971 23.352 25.649 23.6181 25.6481C24.019 25.6483 24.411 25.5295 24.7444 25.3069C25.0778 25.0843 25.3377 24.7678 25.4912 24.3974C25.6447 24.027 25.6849 23.6195 25.6067 23.2262C25.5285 22.833 25.3354 22.4718 25.0519 22.1884C24.8229 21.9607 24.6669 21.6699 24.6039 21.3532C24.5408 21.0365 24.5736 20.7082 24.6979 20.4101L25.6831 18.0357C25.8062 17.737 26.0155 17.4817 26.2843 17.3025C26.5531 17.1232 26.8693 17.0281 27.1924 17.0293C27.7238 17.0195 28.2302 16.8016 28.6026 16.4222C28.975 16.0429 29.1837 15.5326 29.1837 15.001C29.1837 14.4695 28.975 13.9591 28.6026 13.5798C28.2302 13.2005 27.7238 12.9825 27.1924 12.9728C26.8695 12.9741 26.5535 12.8793 26.2847 12.7005C26.0159 12.5216 25.8065 12.2667 25.6831 11.9684L24.6979 9.59056C24.5737 9.29262 24.5411 8.96444 24.6041 8.64787C24.6672 8.33129 24.823 8.04066 25.0519 7.81303C25.4317 7.43284 25.6451 6.91739 25.645 6.37997C25.645 5.84254 25.4315 5.32713 25.0516 4.94702C24.6717 4.56692 24.1564 4.35322 23.619 4.35291C23.0815 4.3526 22.566 4.5657 22.1856 4.94537C21.958 5.17396 21.6675 5.32973 21.3511 5.39288C21.0347 5.45604 20.7067 5.42372 20.4088 5.30005L18.0337 4.31352C17.7351 4.19026 17.4799 3.98091 17.3006 3.71213C17.1214 3.44334 17.0262 3.12729 17.0273 2.80423C17.0175 2.27312 16.7996 1.76706 16.4206 1.39491C16.0415 1.02276 15.5315 0.814264 15.0003 0.814264C14.4691 0.814264 13.9592 1.02276 13.5801 1.39491C13.201 1.76706 12.9832 2.27312 12.9734 2.80423C12.9744 3.12729 12.8793 3.44334 12.7 3.71213C12.5208 3.98091 12.2656 4.19026 11.967 4.31352L9.59056 5.29937C9.29242 5.42245 8.96452 5.45451 8.64819 5.39151C8.33186 5.32852 8.04126 5.17328 7.81302 4.94537C7.43284 4.56509 6.91716 4.35142 6.37943 4.35136C5.84171 4.35129 5.32598 4.56484 4.9457 4.94502C4.56543 5.32521 4.35176 5.84089 4.35169 6.37861C4.35163 6.91634 4.56518 7.43207 4.94536 7.81234C5.17406 8.04008 5.32984 8.3307 5.39287 8.64724C5.45591 8.96377 5.42336 9.2919 5.29936 9.58988L4.3142 11.9677C4.19069 12.2661 3.98125 12.521 3.71251 12.7001C3.44376 12.8792 3.12785 12.9743 2.80491 12.9734C2.27362 12.9832 1.76738 13.2011 1.39511 13.5803C1.02284 13.9595 0.814265 14.4697 0.814265 15.001C0.814265 15.5324 1.02284 16.0426 1.39511 16.4218C1.76738 16.8009 2.27362 17.0189 2.80491 17.0286C3.12797 17.0276 3.44402 17.1228 3.71281 17.302C3.98159 17.4813 4.19095 17.7364 4.3142 18.0351L5.29936 20.4101C5.42327 20.7081 5.45577 21.0362 5.39274 21.3528C5.3297 21.6693 5.17398 21.9599 4.94536 22.1877C4.56551 22.5679 4.35217 23.0833 4.35222 23.6207C4.35227 24.1582 4.56572 24.6736 4.94565 25.0537C5.32557 25.4338 5.84088 25.6475 6.3783 25.6478C6.91573 25.6481 7.43128 25.435 7.81165 25.0553C8.11744 24.7498 8.53194 24.5781 8.9642 24.5779H8.96283Z" fill="#20363F"/>
<path d="M19.9889 14.3071C19.8904 14.3072 19.7941 14.2781 19.712 14.2235C19.63 14.1689 19.5659 14.0913 19.5279 14.0004L19.1252 13.0276C19.0874 12.9364 19.0775 12.8359 19.097 12.739C19.1164 12.6422 19.1642 12.5532 19.2343 12.4836C19.4215 12.2961 19.5266 12.0419 19.5266 11.777C19.5266 11.512 19.4215 11.2579 19.2343 11.0704C19.0443 10.8889 18.7917 10.7876 18.529 10.7876C18.2663 10.7876 18.0137 10.8889 17.8238 11.0704C17.7541 11.1401 17.6653 11.1876 17.5685 11.2069C17.4718 11.2262 17.3716 11.2164 17.2804 11.1788L16.3083 10.7754C16.2172 10.7375 16.1393 10.6736 16.0844 10.5915C16.0296 10.5095 16.0003 10.413 16.0003 10.3143C16.0003 10.0498 15.8952 9.79606 15.7081 9.609C15.521 9.42193 15.2673 9.31683 15.0028 9.31683C14.7382 9.31683 14.4845 9.42193 14.2974 9.609C14.1104 9.79606 14.0053 10.0498 14.0053 10.3143C14.0052 10.413 13.9759 10.5095 13.9211 10.5915C13.8663 10.6736 13.7884 10.7375 13.6972 10.7754L12.7251 11.1788C12.6339 11.2162 12.5337 11.2258 12.4371 11.2065C12.3404 11.1873 12.2516 11.1399 12.1818 11.0704C11.9944 10.883 11.7402 10.7777 11.4751 10.7777C11.2101 10.7777 10.9559 10.883 10.7685 11.0704C10.5811 11.2578 10.4758 11.5119 10.4758 11.777C10.4758 12.042 10.5811 12.2962 10.7685 12.4836C10.8383 12.5533 10.8858 12.6421 10.9051 12.7388C10.9244 12.8356 10.9146 12.9358 10.8769 13.027L10.4735 13.9998C10.4355 14.0907 10.3715 14.1684 10.2895 14.2231C10.2074 14.2778 10.1111 14.307 10.0125 14.3071C9.74785 14.3071 9.49404 14.4122 9.30691 14.5994C9.11978 14.7865 9.01465 15.0403 9.01465 15.305C9.01465 15.5696 9.11978 15.8234 9.30691 16.0105C9.49404 16.1977 9.74785 16.3028 10.0125 16.3028C10.1112 16.3028 10.2077 16.332 10.2898 16.3869C10.3718 16.4417 10.4358 16.5196 10.4735 16.6108L10.8762 17.5823C10.9139 17.6734 10.9237 17.7737 10.9044 17.8704C10.8851 17.9671 10.8376 18.0559 10.7678 18.1256C10.5809 18.3129 10.476 18.5666 10.476 18.8312C10.476 19.0958 10.5809 19.3495 10.7678 19.5368C10.9578 19.7183 11.2104 19.8196 11.4731 19.8196C11.7358 19.8196 11.9884 19.7183 12.1783 19.5368C12.248 19.4671 12.3369 19.4195 12.4336 19.4002C12.5303 19.3809 12.6305 19.3907 12.7217 19.4284L13.6945 19.8318C13.7856 19.8695 13.8635 19.9334 13.9183 20.0153C13.9731 20.0972 14.0024 20.1936 14.0025 20.2921C14.0025 20.5567 14.1076 20.8104 14.2947 20.9975C14.4818 21.1846 14.7355 21.2896 15 21.2896C15.2646 21.2896 15.5183 21.1846 15.7054 20.9975C15.8924 20.8104 15.9975 20.5567 15.9975 20.2921C15.9975 20.1935 16.0268 20.0972 16.0817 20.0152C16.1365 19.9333 16.2144 19.8694 16.3056 19.8318L17.2777 19.4284C17.3688 19.3907 17.4691 19.3809 17.5658 19.4002C17.6625 19.4195 17.7513 19.4671 17.821 19.5368C18.0082 19.7242 18.2621 19.8296 18.5269 19.8298C18.7918 19.83 19.0458 19.725 19.2333 19.5378C19.4207 19.3507 19.5261 19.0968 19.5262 18.8319C19.5264 18.5671 19.4214 18.313 19.2343 18.1256C19.1644 18.056 19.1169 17.9671 19.0976 17.8704C19.0783 17.7737 19.0881 17.6734 19.1259 17.5823L19.5286 16.6108C19.5663 16.5196 19.6303 16.4417 19.7124 16.3869C19.7944 16.332 19.8909 16.3028 19.9896 16.3028C20.2497 16.296 20.4969 16.1879 20.6785 16.0015C20.86 15.8151 20.9616 15.5652 20.9616 15.305C20.9616 15.0448 20.86 14.7948 20.6785 14.6084C20.4969 14.4221 20.2497 14.3139 19.9896 14.3071H19.9889Z" fill="white"/>
<path d="M15 21.3974C14.6265 21.397 14.2684 21.2485 14.0042 20.9845C13.74 20.7204 13.5914 20.3624 13.5908 19.9889C13.5909 19.9718 13.5859 19.9551 13.5765 19.9408C13.5671 19.9266 13.5537 19.9154 13.538 19.9086L12.5645 19.5053C12.5485 19.4986 12.5308 19.4969 12.5138 19.5005C12.4968 19.504 12.4812 19.5126 12.4692 19.5251C12.2027 19.784 11.8459 19.9288 11.4744 19.9288C11.1029 19.9288 10.7461 19.784 10.4796 19.5251C10.2169 19.2608 10.0694 18.9031 10.0694 18.5304C10.0694 18.1576 10.2169 17.8 10.4796 17.5356C10.492 17.5234 10.5004 17.5079 10.5038 17.4909C10.5072 17.4739 10.5055 17.4563 10.4988 17.4403L10.0961 16.4695C10.0896 16.4534 10.0784 16.4397 10.0639 16.43C10.0495 16.4204 10.0325 16.4153 10.0152 16.4153C9.64137 16.4153 9.28287 16.2668 9.01854 16.0025C8.75421 15.7382 8.60571 15.3797 8.60571 15.0058C8.60571 14.632 8.75421 14.2735 9.01854 14.0092C9.28287 13.7449 9.64137 13.5964 10.0152 13.5964C10.0325 13.5962 10.0493 13.5909 10.0637 13.5813C10.0781 13.5717 10.0894 13.5581 10.0961 13.5422L10.4988 12.5707C10.5053 12.5548 10.507 12.5373 10.5036 12.5205C10.5001 12.5036 10.4918 12.4882 10.4796 12.4761C10.2329 12.2084 10.0993 11.8557 10.1068 11.4917C10.1144 11.1278 10.2625 10.7808 10.5201 10.5237C10.7778 10.2665 11.1249 10.119 11.4889 10.112C11.8528 10.1051 12.2054 10.2393 12.4726 10.4865C12.4852 10.4987 12.5011 10.5068 12.5183 10.51C12.5355 10.5132 12.5532 10.5112 12.5693 10.5044L13.5401 10.0934C13.556 10.0867 13.5697 10.0755 13.5793 10.0611C13.5889 10.0467 13.5941 10.0298 13.5943 10.0125C13.5943 9.63875 13.7427 9.28034 14.007 9.01607C14.2713 8.75181 14.6297 8.60335 15.0034 8.60335C15.3771 8.60335 15.7355 8.75181 15.9998 9.01607C16.2641 9.28034 16.4125 9.63875 16.4125 10.0125C16.4125 10.0298 16.4176 10.0468 16.4273 10.0612C16.4369 10.0757 16.4507 10.0869 16.4667 10.0934L17.4389 10.4961C17.4546 10.5026 17.4719 10.5042 17.4886 10.501C17.5053 10.4977 17.5207 10.4895 17.5328 10.4776C17.6617 10.3391 17.8172 10.2279 17.9899 10.1507C18.1627 10.0736 18.3492 10.032 18.5384 10.0284C18.7276 10.0249 18.9156 10.0595 19.0911 10.1302C19.2666 10.2009 19.4261 10.3062 19.56 10.4399C19.6939 10.5736 19.7996 10.7328 19.8706 10.9082C19.9417 11.0836 19.9767 11.2714 19.9736 11.4606C19.9704 11.6498 19.9292 11.8365 19.8524 12.0094C19.7756 12.1823 19.6648 12.338 19.5265 12.4671C19.5143 12.4793 19.506 12.4947 19.5026 12.5116C19.4991 12.5284 19.5008 12.5459 19.5073 12.5618L19.9065 13.5401C19.9133 13.5558 19.9246 13.5691 19.9388 13.5785C19.9531 13.5879 19.9698 13.5929 19.9868 13.5929C20.3552 13.6011 20.7059 13.7531 20.9635 14.0166C21.2212 14.28 21.3655 14.6339 21.3655 15.0024C21.3655 15.3709 21.2212 15.7248 20.9635 15.9882C20.7059 16.2517 20.3552 16.4038 19.9868 16.4119C19.9696 16.4118 19.9528 16.4169 19.9385 16.4264C19.9242 16.4359 19.9131 16.4495 19.9065 16.4654L19.5038 17.4375C19.4973 17.4534 19.4957 17.4709 19.4991 17.4878C19.5025 17.5046 19.5109 17.5201 19.5231 17.5322C19.7203 17.7291 19.8548 17.9802 19.9093 18.2536C19.9638 18.527 19.936 18.8104 19.8293 19.0679C19.7226 19.3255 19.5419 19.5456 19.3101 19.7004C19.0782 19.8552 18.8057 19.9377 18.5269 19.9375C18.3419 19.9381 18.1586 19.902 17.9876 19.8314C17.8167 19.7607 17.6614 19.6569 17.5308 19.5258C17.5187 19.5136 17.5032 19.5052 17.4864 19.5018C17.4695 19.4983 17.452 19.5 17.4361 19.5066L16.464 19.91C16.448 19.9165 16.4343 19.9275 16.4246 19.9418C16.4149 19.9562 16.4098 19.973 16.4098 19.9903C16.4089 20.3637 16.26 20.7214 15.9957 20.9852C15.7314 21.249 15.3733 21.3972 15 21.3974ZM12.5302 18.6745C12.6498 18.6742 12.7682 18.6975 12.8787 18.7431L13.8515 19.1465C14.0185 19.2149 14.1613 19.3316 14.2615 19.4817C14.3617 19.6318 14.4149 19.8084 14.4141 19.9889C14.4141 20.1443 14.4758 20.2933 14.5857 20.4032C14.6956 20.5131 14.8446 20.5748 15 20.5748C15.1554 20.5748 15.3044 20.5131 15.4143 20.4032C15.5241 20.2933 15.5859 20.1443 15.5859 19.9889C15.5853 19.8087 15.6383 19.6325 15.7383 19.4826C15.8382 19.3327 15.9805 19.2159 16.147 19.1471L17.1192 18.7444C17.2855 18.6752 17.4686 18.657 17.6452 18.6922C17.8219 18.7274 17.9841 18.8144 18.1112 18.942C18.1652 18.9961 18.2294 19.0391 18.3 19.0684C18.3706 19.0977 18.4463 19.1128 18.5228 19.1128C18.6383 19.1122 18.7511 19.0774 18.8469 19.0129C18.9427 18.9483 19.0173 18.8569 19.0613 18.7501C19.1053 18.6432 19.1167 18.5258 19.0941 18.4125C19.0716 18.2992 19.016 18.1951 18.9344 18.1133C18.8066 17.9862 18.7195 17.8239 18.6843 17.647C18.6491 17.4702 18.6674 17.2869 18.7368 17.1206L19.1464 16.1471C19.2154 15.9806 19.3323 15.8385 19.4824 15.7388C19.6324 15.6391 19.8087 15.5864 19.9889 15.5873C20.1409 15.5821 20.2849 15.518 20.3906 15.4086C20.4963 15.2993 20.5554 15.1531 20.5554 15.001C20.5554 14.8489 20.4963 14.7028 20.3906 14.5934C20.2849 14.4841 20.1409 14.42 19.9889 14.4148C19.8088 14.4152 19.6327 14.3621 19.483 14.2622C19.3332 14.1623 19.2165 14.02 19.1478 13.8536L18.7451 12.8808C18.6758 12.7145 18.6575 12.5314 18.6927 12.3547C18.7279 12.178 18.8149 12.0158 18.9427 11.8888C19.0526 11.7789 19.1143 11.6299 19.1143 11.4744C19.1143 11.319 19.0526 11.17 18.9427 11.0601C18.8328 10.9502 18.6837 10.8884 18.5283 10.8884C18.3729 10.8884 18.2238 10.9502 18.1139 11.0601C17.987 11.1877 17.8249 11.2747 17.6484 11.31C17.4719 11.3453 17.2889 11.3273 17.1226 11.2583L16.147 10.8543C15.9805 10.7856 15.8382 10.6689 15.7382 10.5192C15.6381 10.3694 15.5849 10.1933 15.5852 10.0132C15.5852 9.85778 15.5234 9.70876 15.4136 9.59889C15.3037 9.48901 15.1547 9.42729 14.9993 9.42729C14.8439 9.42729 14.6949 9.48901 14.585 9.59889C14.4751 9.70876 14.4134 9.85778 14.4134 10.0132C14.4137 10.1933 14.3604 10.3694 14.2604 10.5192C14.1603 10.6689 14.018 10.7856 13.8515 10.8543L12.8794 11.2576C12.713 11.3264 12.53 11.3443 12.3535 11.3092C12.1769 11.274 12.0147 11.1873 11.8874 11.0601C11.7775 10.9502 11.6284 10.8884 11.473 10.8884C11.3176 10.8884 11.1686 10.9502 11.0587 11.0601C10.9488 11.17 10.887 11.319 10.887 11.4744C10.887 11.6299 10.9488 11.7789 11.0587 11.8888C11.1862 12.0159 11.2731 12.1781 11.3083 12.3548C11.3435 12.5314 11.3254 12.7145 11.2562 12.8808L10.8535 13.8536C10.7848 14.0201 10.6681 14.1623 10.5184 14.2624C10.3686 14.3624 10.1925 14.4157 10.0124 14.4155C9.85697 14.4155 9.70786 14.4773 9.59792 14.5872C9.48798 14.6971 9.42622 14.8462 9.42622 15.0017C9.42622 15.1572 9.48798 15.3063 9.59792 15.4162C9.70786 15.5262 9.85697 15.5879 10.0124 15.5879C10.1922 15.5874 10.3681 15.6403 10.5179 15.7398C10.6676 15.8394 10.7844 15.9811 10.8535 16.1471L11.2562 17.1185C11.3254 17.2848 11.3435 17.4679 11.3083 17.6446C11.2731 17.8212 11.1862 17.9834 11.0587 18.1105C10.9491 18.2206 10.8875 18.3696 10.8875 18.5249C10.8875 18.6802 10.9491 18.8292 11.0587 18.9393C11.1713 19.0436 11.3192 19.1016 11.4727 19.1016C11.6262 19.1016 11.7741 19.0436 11.8867 18.9393C12.0579 18.7691 12.2896 18.6738 12.5309 18.6745H12.5302Z" fill="#20363F"/>
<path d="M21.1421 7.01516C21.4718 7.2487 21.7789 7.5126 22.0594 7.80342C22.1849 7.94063 22.305 8.07029 22.4024 8.2027C22.4525 8.2713 22.5032 8.32961 22.5471 8.39273L22.6699 8.5759C22.7397 8.68081 22.8033 8.78961 22.8607 8.90177C22.886 8.95117 22.9107 8.99645 22.9293 9.03898C22.9478 9.08152 22.9642 9.12405 22.978 9.16041C23.0329 9.3086 23.0466 9.3971 23.0164 9.41562C22.9862 9.43414 22.9107 9.37995 22.8051 9.26949C22.7786 9.24205 22.7502 9.21095 22.72 9.17619L22.6178 9.06711C22.5451 8.9889 22.4689 8.89629 22.3749 8.80161L22.2336 8.64931C22.1849 8.59649 22.1293 8.54503 22.0751 8.48946C21.9688 8.37695 21.8446 8.26718 21.7191 8.14644C21.1629 7.63944 20.5435 7.2064 19.8764 6.85805C19.7213 6.78053 19.5752 6.70232 19.4332 6.64058C19.3646 6.60902 19.296 6.57197 19.2274 6.54659L19.036 6.46564C18.9145 6.41007 18.8013 6.37096 18.7032 6.32843L18.566 6.27011C18.5235 6.25365 18.4844 6.23787 18.4494 6.22209C18.3122 6.16103 18.2333 6.10958 18.2402 6.07391C18.247 6.03823 18.3348 6.02108 18.4926 6.02177C18.5317 6.02177 18.5756 6.02177 18.6237 6.02588C18.6717 6.03 18.7224 6.03686 18.7773 6.04372C18.9025 6.05948 19.0266 6.08238 19.1492 6.11232L19.3632 6.16446C19.4373 6.18367 19.5121 6.21043 19.591 6.23307C19.7495 6.28041 19.912 6.34901 20.0842 6.41899C20.4548 6.5841 20.809 6.7837 21.1421 7.01516Z" fill="white"/>
<path d="M24.4722 12.4308C24.5922 12.8471 24.6646 13.2756 24.6883 13.7082C24.7007 14.0416 24.6623 14.2522 24.5916 14.2618C24.4448 14.2803 24.2307 13.5072 23.9666 12.5721C23.7025 11.637 23.4864 10.8639 23.6236 10.8035C23.6922 10.7754 23.8294 10.9345 23.9941 11.2268C24.1983 11.6088 24.3587 12.0127 24.4722 12.4308Z" fill="white"/>
</svg>
