<svg width="27" height="22" viewBox="0 0 27 22" fill="none" xmlns="http://www.w3.org/2000/svg">
<path d="M1 8.71482C1 6.93426 1 6.04399 1.39306 5.38565C1.62868 4.99131 1.95843 4.66156 2.35278 4.42593C3.01111 4.03287 3.90139 4.03287 5.68194 4.03287H6.56944C6.68056 4.03287 6.73611 4.03287 6.78889 4.0301C7.24051 4.01341 7.68123 3.8868 8.07283 3.66122C8.46444 3.43565 8.79509 3.11794 9.03611 2.73565L9.16111 2.5551C9.40926 2.22277 9.72867 1.95024 10.0959 1.75748C10.4631 1.56473 10.8689 1.45666 11.2833 1.44121L11.5028 1.43982H15.4972L15.7167 1.44121C16.131 1.45703 16.5365 1.56542 16.9035 1.7584C17.2705 1.95139 17.5896 2.22409 17.8375 2.55649C17.8694 2.59815 17.9014 2.64399 17.9639 2.73704L18.0903 2.91621C18.3601 3.27865 18.7143 3.56979 19.1221 3.76437C19.5299 3.95896 19.9791 4.05113 20.4306 4.03287H21.3181C23.0986 4.03287 23.9889 4.03287 24.6472 4.42593C25.0417 4.66204 25.3708 4.99121 25.6056 5.38565C26 6.04399 26 6.93426 26 8.71482V15.3287C26 17.9482 26 19.2565 25.1861 20.0704C24.3722 20.8843 23.0639 20.8843 20.4444 20.8843H6.55556C3.93611 20.8843 2.62778 20.8843 1.81389 20.0704C1 19.2565 1 17.9482 1 15.3287V8.71482Z" stroke="white" stroke-width="2" stroke-linecap="round"/>
<path d="M17.8653 11.9551C17.8653 13.1128 17.4054 14.2232 16.5868 15.0418C15.7681 15.8605 14.6578 16.3204 13.5 16.3204C12.3423 16.3204 11.232 15.8605 10.4133 15.0418C9.59468 14.2232 9.13477 13.1128 9.13477 11.9551C9.13477 10.7973 9.59468 9.68702 10.4133 8.86837C11.232 8.04972 12.3423 7.58981 13.5 7.58981C14.6578 7.58981 15.7681 8.04972 16.5868 8.86837C17.4054 9.68702 17.8653 10.7973 17.8653 11.9551Z" stroke="white" stroke-width="2" stroke-linecap="round"/>
<path d="M19.8486 8.38426C19.8486 8.17375 19.9323 7.97186 20.0811 7.823C20.23 7.67414 20.4319 7.59052 20.6424 7.59052C20.8529 7.59052 21.0548 7.67414 21.2037 7.823C21.3525 7.97186 21.4361 8.17375 21.4361 8.38426C21.4361 8.59478 21.3525 8.79667 21.2037 8.94553C21.0548 9.09439 20.8529 9.17801 20.6424 9.17801C20.4319 9.17801 20.23 9.09439 20.0811 8.94553C19.9323 8.79667 19.8486 8.59478 19.8486 8.38426Z" fill="white"/>
</svg>
