<svg width="52" height="62" viewBox="0 0 52 62" fill="none" xmlns="http://www.w3.org/2000/svg">
<path d="M20.9386 15.4294C24.3437 17.3012 28.1916 16.351 29.7879 13.4471C31.3841 10.5432 30.2008 6.82729 27.1448 5.14743C24.0887 3.46757 21.0736 4.0924 15.1311 4.81981C19.7572 8.50383 16.923 12.6515 20.9386 15.4294Z" fill="#72B746"/>
<path d="M30 30V24.75V21.3667C30 20.1269 29.848 18.8918 29.5473 17.689L29.2816 16.6263C29.0949 15.8795 28.7987 15.1645 28.4027 14.5044V14.5044C27.8083 13.5138 27.0014 12.6676 26.0402 12.0268L24.5 11" stroke="#5D8C3F" stroke-width="3" stroke-linecap="round"/>
<path d="M41.2 22C37.0857 22 34 19.3137 34 16C34 12.6863 36.9933 10 40.6857 10C44.3781 10 46.8571 12 52 15.5C45.8286 16.5 46.3429 21.5 41.2 22Z" fill="#83D34F"/>
<path d="M30 30V26.5V26.0467C30 24.0666 30.6274 22.1373 31.7921 20.5359V20.5359C33.2093 18.5872 35.3228 17.2595 37.6934 16.8284L39.5 16.5" stroke="#72B746" stroke-width="3" stroke-linecap="round"/>
<ellipse cx="24.5178" cy="32.3843" rx="4.98214" ry="4.27376" fill="#6B4227"/>
<ellipse cx="30.0536" cy="30.2738" rx="4.98214" ry="4.27376" fill="#6B4227"/>
<ellipse cx="34.4821" cy="32.3843" rx="4.98214" ry="4.27376" fill="#6B4227"/>
<ellipse cx="34.4821" cy="35.55" rx="4.98214" ry="4.27376" fill="#6B4227"/>
<ellipse cx="18.9821" cy="34.4948" rx="4.98214" ry="4.27376" fill="#6B4227"/>
<ellipse cx="22.3036" cy="35.55" rx="4.98214" ry="4.27376" fill="#6B4227"/>
<ellipse cx="28.9464" cy="35.55" rx="4.98214" ry="4.27376" fill="#6B4227"/>
<ellipse cx="33.375" cy="38.7157" rx="4.98214" ry="4.27376" fill="#6B4227"/>
<ellipse cx="26.7321" cy="38.7157" rx="4.98214" ry="4.27376" fill="#6B4227"/>
<ellipse cx="30.0536" cy="40.8262" rx="4.98214" ry="4.27376" fill="#6B4227"/>
<ellipse cx="40.0178" cy="34.4948" rx="4.98214" ry="4.27376" fill="#6B4227"/>
<path d="M30.1723 48.3657L16 38L14 34L45 34L43 38L30.1723 48.3657Z" fill="#6B4227"/>
<path d="M43.9976 34.6168C45.1035 33.83 46.6377 34.0888 47.4244 35.1946V35.1946C48.2111 36.3005 47.9524 37.8347 46.8465 38.6215L35.8114 46.4719L29.7159 50.6793C28.3319 51.6346 26.5614 51.8334 24.9999 51.2088V51.2088L8.32985 45.8156C8.11036 45.7445 7.89735 45.6548 7.69319 45.5474V45.5474C4.65397 43.9485 4.87406 39.5257 8.05701 38.2364L13.5867 35.9965C16.2367 34.923 19.2751 35.6207 21.1914 37.7426L24.6266 41.5464C26.7707 43.9207 30.3518 44.3162 32.9624 42.4672V42.4672L43.9976 34.6168Z" fill="#F4B990"/>
<path d="M36.8285 34.5304C37.9766 34.6948 38.7153 35.8349 38.3963 36.95V36.95C38.1615 37.7708 37.4111 38.3366 36.5573 38.3366L24.9996 38.3366L15.9996 38.3366L10.9996 38.3366L6.6026 38.3366C6.53415 38.3366 6.46592 38.3443 6.39922 38.3597V38.3597C5.44017 38.5802 4.86504 37.3304 5.65641 36.7454L12.6726 31.5595C13.295 31.0995 14.0837 30.926 14.8418 31.0823L18.4996 31.8366L24.9996 32.8366L36.8285 34.5304Z" fill="#F4B990"/>
<rect x="3.05176e-05" y="35.2088" width="13" height="11" rx="2" fill="#F4B990"/>
<path d="M38.3904 36.7726C38.4455 36.7727 38.4854 36.8252 38.4706 36.8783L38.4386 36.9929C38.4355 37.004 38.4456 37.0142 38.4567 37.0113V37.0113C38.4705 37.0077 38.481 37.0238 38.4721 37.035L37.6066 38.1185C37.5163 38.2314 37.3796 38.2972 37.2351 38.2972L37 38.2972L36.1131 38.2972L33.7276 38.2972L28.9316 38.2972L19.9667 38.2807C19.5458 38.2799 19.2051 37.9383 19.2055 37.5174V37.5174C19.2059 37.0962 19.5476 36.7551 19.9688 36.7555L38.3904 36.7726Z" fill="#DDA27A"/>
</svg>
