<svg width="554" height="554" viewBox="0 0 554 554" fill="none" xmlns="http://www.w3.org/2000/svg">
<path d="M456.667 371.331H380.815C375.578 371.331 371.333 375.576 371.333 380.813V456.665C371.333 461.901 375.578 466.146 380.815 466.146H456.667C461.903 466.146 466.148 461.901 466.148 456.665V380.813C466.148 375.576 461.903 371.331 456.667 371.331Z" fill="black"/>
<path d="M361.852 295.481H304.963C299.726 295.481 295.481 299.726 295.481 304.963V361.852C295.481 367.088 299.726 371.333 304.963 371.333H361.852C367.088 371.333 371.333 367.088 371.333 361.852V304.963C371.333 299.726 367.088 295.481 361.852 295.481Z" fill="black"/>
<path d="M532.519 466.15H475.63C470.393 466.15 466.148 470.395 466.148 475.632V532.52C466.148 537.757 470.393 542.002 475.63 542.002H532.519C537.755 542.002 542 537.757 542 532.52V475.632C542 470.395 537.755 466.15 532.519 466.15Z" fill="black"/>
<path d="M532.518 295.481H494.592C489.356 295.481 485.111 299.726 485.111 304.963V342.889C485.111 348.125 489.356 352.37 494.592 352.37H532.518C537.755 352.37 542 348.125 542 342.889V304.963C542 299.726 537.755 295.481 532.518 295.481Z" fill="black"/>
<path d="M342.889 485.113H304.963C299.726 485.113 295.481 489.358 295.481 494.594V532.52C295.481 537.756 299.726 542.001 304.963 542.001H342.889C348.125 542.001 352.37 537.756 352.37 532.52V494.594C352.37 489.358 348.125 485.113 342.889 485.113Z" fill="black"/>
<path d="M456.667 86.8875H380.815C375.578 86.8875 371.333 91.1325 371.333 96.3689V172.221C371.333 177.457 375.578 181.702 380.815 181.702H456.667C461.903 181.702 466.148 177.457 466.148 172.221V96.3689C466.148 91.1325 461.903 86.8875 456.667 86.8875Z" fill="black"/>
<path d="M504.074 30H333.408C322.935 30 314.445 38.49 314.445 48.963V219.63C314.445 230.103 322.935 238.593 333.408 238.593H504.074C514.547 238.593 523.037 230.103 523.037 219.63V48.963C523.037 38.49 514.547 30 504.074 30Z" stroke="black" stroke-width="60" stroke-linecap="round" stroke-linejoin="round"/>
<path d="M172.223 86.8875H96.3711C91.1347 86.8875 86.8897 91.1325 86.8897 96.3689V172.221C86.8897 177.457 91.1347 181.702 96.3711 181.702H172.223C177.459 181.702 181.704 177.457 181.704 172.221V96.3689C181.704 91.1325 177.459 86.8875 172.223 86.8875Z" fill="black"/>
<path d="M219.63 30H48.963C38.49 30 30 38.49 30 48.963V219.63C30 230.103 38.49 238.593 48.963 238.593H219.63C230.103 238.593 238.593 230.103 238.593 219.63V48.963C238.593 38.49 230.103 30 219.63 30Z" stroke="black" stroke-width="60" stroke-linecap="round" stroke-linejoin="round"/>
<path d="M172.223 371.331H96.3711C91.1347 371.331 86.8897 375.576 86.8897 380.813V456.665C86.8897 461.901 91.1347 466.146 96.3711 466.146H172.223C177.459 466.146 181.704 461.901 181.704 456.665V380.813C181.704 375.576 177.459 371.331 172.223 371.331Z" fill="black"/>
<path d="M219.63 314.444H48.963C38.49 314.444 30 322.934 30 333.407V504.074C30 514.546 38.49 523.036 48.963 523.036H219.63C230.103 523.036 238.593 514.546 238.593 504.074V333.407C238.593 322.934 230.103 314.444 219.63 314.444Z" stroke="black" stroke-width="60" stroke-linecap="round" stroke-linejoin="round"/>
</svg>
