<svg width="500" height="127" viewBox="0 0 500 127" fill="none" xmlns="http://www.w3.org/2000/svg">
<g filter="url(#filter0_bd_861_12)">
<mask id="path-1-inside-1_861_12" fill="white">
<path fill-rule="evenodd" clip-rule="evenodd" d="M289.762 98C299.202 88.1252 305 74.7397 305 60C305 44.7566 298.799 30.9615 288.781 21H460C468.284 21 475 27.7157 475 36V83C475 91.2843 468.284 98 460 98H289.762ZM210.238 98H40C31.7157 98 25 91.2843 25 83V36C25 27.7157 31.7157 21 40 21H211.219C201.201 30.9615 195 44.7566 195 60C195 74.7397 200.798 88.1252 210.238 98Z"/>
</mask>
<path fill-rule="evenodd" clip-rule="evenodd" d="M289.762 98C299.202 88.1252 305 74.7397 305 60C305 44.7566 298.799 30.9615 288.781 21H460C468.284 21 475 27.7157 475 36V83C475 91.2843 468.284 98 460 98H289.762ZM210.238 98H40C31.7157 98 25 91.2843 25 83V36C25 27.7157 31.7157 21 40 21H211.219C201.201 30.9615 195 44.7566 195 60C195 74.7397 200.798 88.1252 210.238 98Z" fill="url(#paint0_linear_861_12)" shape-rendering="crispEdges"/>
<path d="M289.762 98L289.039 97.309L287.423 99H289.762V98ZM288.781 21V20H286.358L288.076 21.7091L288.781 21ZM210.238 98V99H212.577L210.961 97.309L210.238 98ZM211.219 21L211.924 21.7091L213.642 20H211.219V21ZM304 60C304 74.4721 298.308 87.6128 289.039 97.309L290.485 98.691C300.095 88.6376 306 75.0073 306 60H304ZM288.076 21.7091C297.913 31.4906 304 45.0335 304 60H306C306 44.4797 299.685 30.4325 289.487 20.2909L288.076 21.7091ZM288.781 22H460V20H288.781V22ZM460 22C467.732 22 474 28.268 474 36H476C476 27.1634 468.837 20 460 20V22ZM474 36V83H476V36H474ZM474 83C474 90.732 467.732 97 460 97V99C468.837 99 476 91.8366 476 83H474ZM460 97H289.762V99H460V97ZM210.238 97H40V99H210.238V97ZM40 97C32.268 97 26 90.732 26 83H24C24 91.8366 31.1635 99 40 99V97ZM26 83V36H24V83H26ZM26 36C26 28.268 32.268 22 40 22V20C31.1634 20 24 27.1634 24 36H26ZM40 22H211.219V20H40V22ZM196 60C196 45.0335 202.087 31.4906 211.924 21.7091L210.513 20.2909C200.315 30.4325 194 44.4797 194 60H196ZM210.961 97.309C201.692 87.6128 196 74.4721 196 60H194C194 75.0073 199.905 88.6376 209.515 98.691L210.961 97.309Z" fill="url(#paint1_linear_861_12)" fill-opacity="0.3" mask="url(#path-1-inside-1_861_12)"/>
</g>
<defs>
<filter id="filter0_bd_861_12" x="0" y="0" width="500" height="127" filterUnits="userSpaceOnUse" color-interpolation-filters="sRGB">
<feFlood flood-opacity="0" result="BackgroundImageFix"/>
<feGaussianBlur in="BackgroundImageFix" stdDeviation="5"/>
<feComposite in2="SourceAlpha" operator="in" result="effect1_backgroundBlur_861_12"/>
<feColorMatrix in="SourceAlpha" type="matrix" values="0 0 0 0 0 0 0 0 0 0 0 0 0 0 0 0 0 0 127 0" result="hardAlpha"/>
<feOffset dy="4"/>
<feGaussianBlur stdDeviation="12.5"/>
<feComposite in2="hardAlpha" operator="out"/>
<feColorMatrix type="matrix" values="0 0 0 0 1 0 0 0 0 1 0 0 0 0 1 0 0 0 0.25 0"/>
<feBlend mode="normal" in2="effect1_backgroundBlur_861_12" result="effect2_dropShadow_861_12"/>
<feBlend mode="normal" in="SourceGraphic" in2="effect2_dropShadow_861_12" result="shape"/>
</filter>
<linearGradient id="paint0_linear_861_12" x1="38.2353" y1="32.3606" x2="357.229" y2="234.446" gradientUnits="userSpaceOnUse">
<stop stop-color="#EEEEEE" stop-opacity="0.8"/>
<stop offset="1" stop-color="#BCBCBC" stop-opacity="0.8"/>
</linearGradient>
<linearGradient id="paint1_linear_861_12" x1="44.1912" y1="27.3115" x2="346.662" y2="241.487" gradientUnits="userSpaceOnUse">
<stop stop-color="#FFFAFA"/>
<stop offset="1" stop-color="#BCBCBC"/>
</linearGradient>
</defs>
</svg>
