<svg width="500" height="127" viewBox="0 0 500 127" fill="none" xmlns="http://www.w3.org/2000/svg">
<g filter="url(#filter0_bd_861_12)">
<path fill-rule="evenodd" clip-rule="evenodd" d="M289.762 98C299.202 88.1252 305 74.7397 305 60C305 44.7566 298.799 30.9615 288.781 21H460C468.284 21 475 27.7157 475 36V83C475 91.2843 468.284 98 460 98H289.762ZM210.238 98H40C31.7157 98 25 91.2843 25 83V36C25 27.7157 31.7157 21 40 21H211.219C201.201 30.9615 195 44.7566 195 60C195 74.7397 200.798 88.1252 210.238 98Z" fill="url(#paint0_linear_861_12)" shape-rendering="crispEdges"/>
</g>
<defs>
<filter id="filter0_bd_861_12" x="0" y="0" width="500" height="127" filterUnits="userSpaceOnUse" color-interpolation-filters="sRGB">
<feFlood flood-opacity="0" result="BackgroundImageFix"/>
<feGaussianBlur in="BackgroundImageFix" stdDeviation="5"/>
<feComposite in2="SourceAlpha" operator="in" result="effect1_backgroundBlur_861_12"/>
<feColorMatrix in="SourceAlpha" type="matrix" values="0 0 0 0 0 0 0 0 0 0 0 0 0 0 0 0 0 0 127 0" result="hardAlpha"/>
<feOffset dy="4"/>
<feGaussianBlur stdDeviation="12.5"/>
<feComposite in2="hardAlpha" operator="out"/>
<feColorMatrix type="matrix" values="0 0 0 0 1 0 0 0 0 1 0 0 0 0 1 0 0 0 0.25 0"/>
<feBlend mode="normal" in2="effect1_backgroundBlur_861_12" result="effect2_dropShadow_861_12"/>
<feBlend mode="normal" in="SourceGraphic" in2="effect2_dropShadow_861_12" result="shape"/>
</filter>
<linearGradient id="paint0_linear_861_12" x1="38.2353" y1="32.3606" x2="357.229" y2="234.446" gradientUnits="userSpaceOnUse">
<stop stop-color="#DDDDDD" stop-opacity="0.8"/>
<stop offset="0.715" stop-color="#BCBCBC" stop-opacity="0.8"/>
</linearGradient>
</defs>
</svg>
